<svg xmlns="http://www.w3.org/2000/svg" type="color-fill-current" width="300px" height="300px" version="1.1" viewBox="0 0 20 20" x="0px" y="0px" fill="#EEE">
  <g><path d="M3 9c0-.621.08-1.223.233-1.796l1.122.441.654 1.663a5 5 0 105.3-5.299l-1.664-.654-.441-1.122a7 7 0 015.014 12.985L14 16a2 2 0 012 2H4a2 2 0 012-2l.782-.782A7 7 0 013 9z"/><path d="M7.489 4.511L10 5.5l-2.511.989L6.5 9l-.989-2.511L3 5.5l2.511-.989L6.5 2l.989 2.511zM12 9l-1.435-.565L10 7l-.565 1.435L8 9l1.435.565L10 11l.565-1.435L12 9z"/></g>
</svg>
