<svg xmlns="http://www.w3.org/2000/svg" type="color-fill-current" width="300px" height="300px" version="1.1" viewBox="0 0 20 20" x="0px" y="0px" fill="#EEE">
  <g><path fill-rule="evenodd" d="M4 10.235l-.105.002a2.936 2.936 0 00-1.66.587l-.138.103A.06.06 0 012 10.88V10a8.074 8.074 0 01.121-1.394 8.002 8.002 0 0115.809.33c.046.348.07.703.07 1.064v.879a.06.06 0 01-.097.048l-.138-.103a2.936 2.936 0 00-3.315-.147l-2.49 4.045A1 1 0 0112 15v2a1 1 0 01-1 1H9a1 1 0 01-1-1v-2a1 1 0 01.04-.278l-2.49-4.045A2.937 2.937 0 004 10.235zM10.057 14h-.114l-2.382-3.872a6.674 6.674 0 014.878 0L10.057 14zm-4.07-5.348a8.671 8.671 0 018.027 0 4.937 4.937 0 011.724-.41 6.003 6.003 0 00-11.476 0c.589.031 1.174.168 1.724.41z" clip-rule="evenodd"/></g>
</svg>
